<svg width="901" height="900" viewBox="0 0 901 900" fill="none" xmlns="http://www.w3.org/2000/svg">
<path d="M89.7576 450.583C89.8192 502.033 100.914 552.871 122.294 599.669C143.674 646.466 174.841 688.134 213.694 721.861C252.547 755.589 298.181 780.592 347.518 795.184C396.855 809.775 448.748 813.616 499.696 806.447C550.644 799.279 599.462 781.267 642.857 753.627C686.252 725.987 723.214 689.362 751.251 646.223C779.288 603.083 797.747 554.432 805.382 503.552C813.018 452.672 809.653 400.746 795.515 351.277C793.53 345.498 792.742 339.375 793.199 333.281C793.656 327.187 795.348 321.25 798.172 315.831C800.997 310.412 804.895 305.625 809.629 301.761C814.363 297.896 819.834 295.036 825.708 293.353C831.583 291.671 837.739 291.201 843.8 291.974C849.862 292.746 855.704 294.744 860.969 297.846C866.234 300.948 870.812 305.089 874.426 310.017C878.04 314.945 880.613 320.557 881.988 326.511C909.365 422.31 904.164 524.488 867.203 617.013C830.242 709.538 763.611 787.176 677.764 837.746C591.916 888.316 491.71 908.956 392.866 896.43C294.022 883.903 202.133 838.917 131.615 768.531C61.1736 698.03 16.14 606.133 3.58455 507.266C-8.97093 408.399 11.6627 308.162 62.2459 222.292C112.829 136.422 190.497 69.7817 283.057 32.8345C375.616 -4.11281 477.824 -9.27513 573.635 18.158C585.044 21.4929 594.668 29.2081 600.405 39.6175C606.142 50.0269 607.526 62.2841 604.253 73.7104C600.981 85.1368 593.318 94.8031 582.94 100.597C572.562 106.391 560.313 107.841 548.869 104.631C495.292 89.2464 438.874 86.5201 384.063 96.6675C329.253 106.815 277.549 129.558 233.031 163.104C188.514 196.649 152.398 240.079 127.535 289.968C102.671 339.858 89.7385 394.842 89.7576 450.583Z" fill="#3843FF"/>
<path d="M269.658 450.582C269.661 483.36 278.614 515.515 295.55 543.578C312.485 571.641 336.762 594.548 365.76 609.828C394.758 625.108 427.378 632.181 460.101 630.283C492.823 628.386 524.407 617.591 551.445 599.062C578.478 580.486 599.918 554.874 613.447 524.994C626.976 495.114 632.079 462.104 628.203 429.534C627.155 421.63 628.233 413.59 631.325 406.241C634.417 398.892 639.412 392.5 645.795 387.723C652.178 382.947 659.72 379.957 667.642 379.064C675.565 378.17 683.582 379.404 690.869 382.639C698.155 385.832 704.463 390.9 709.151 397.326C713.839 403.752 716.739 411.307 717.555 419.219C724.071 474.875 713.099 531.179 686.163 580.316C659.227 629.453 617.662 668.987 567.237 693.428C516.813 717.87 460.03 726.009 404.77 716.714C349.511 707.419 298.515 681.152 258.862 641.558C219.208 601.965 192.864 551.009 183.485 495.764C174.106 440.518 182.158 383.723 206.523 333.262C230.888 282.8 270.358 241.176 319.454 214.165C368.551 187.154 424.838 176.096 480.503 182.528C486.464 183.081 492.254 184.818 497.534 187.638C502.815 190.458 507.479 194.303 511.254 198.949C515.029 203.595 517.838 208.947 519.518 214.693C521.197 220.439 521.713 226.462 521.034 232.409C520.355 238.357 518.496 244.109 515.566 249.329C512.635 254.549 508.692 259.131 503.968 262.807C499.244 266.483 493.833 269.179 488.053 270.737C482.274 272.295 476.241 272.683 470.309 271.879C445.102 268.953 419.561 271.392 395.364 279.036C371.167 286.681 348.86 299.358 329.91 316.236C310.96 333.113 295.795 353.809 285.41 376.963C275.026 400.117 269.658 425.206 269.658 450.582Z" fill="#CDCDD0"/>
<path d="M787.598 112.546L888.103 132.636C893.5 133.715 897.938 137.673 899.497 143.01C900.284 145.602 900.355 148.36 899.7 150.989C899.045 153.619 897.69 156.021 895.779 157.942L813.444 240.337C803.578 250.148 790.237 255.665 776.324 255.689H708.021L536.514 427.256C539.786 439.61 540.388 452.52 538.279 465.126C536.17 477.731 531.4 489.743 524.285 500.36C517.17 510.977 507.874 519.956 497.017 526.699C486.16 533.441 473.991 537.793 461.32 539.464C448.649 541.135 435.768 540.086 423.534 536.389C411.3 532.691 399.994 526.428 390.371 518.018C380.747 509.608 373.026 499.244 367.722 487.616C362.417 475.988 359.652 463.364 359.61 450.583C359.607 436.78 362.78 423.161 368.885 410.782C374.99 398.402 383.862 387.593 394.814 379.192C405.766 370.791 418.504 365.023 432.043 362.335C445.582 359.647 459.557 360.111 472.888 363.69L644.455 192.063V123.88C644.455 109.968 649.972 96.5951 659.807 86.7604L742.202 4.36509C744.123 2.45386 746.526 1.09886 749.155 0.44419C751.784 -0.210483 754.542 -0.14036 757.134 0.647103C762.471 2.20626 766.429 6.64385 767.508 12.0409L787.598 112.546Z" fill="#3843FF"/>
</svg>
